<svg xmlns="http://www.w3.org/2000/svg" version="1.1" xmlns:xlink="http://www.w3.org/1999/xlink" xmlns:svgjs="http://svgjs.com/svgjs" width="1920" height="1080" preserveAspectRatio="none" viewBox="0 0 1920 1080"><g mask="url(&quot;#SvgjsMask1073&quot;)" fill="none"><rect width="1920" height="1080" x="0" y="0" fill="rgba(51, 102, 204, 1)"></rect><path d="M0,720.659C134.651,692.189,270.887,676.072,386.583,601.534C502.191,527.053,579.002,413.829,654.585,298.939C742.876,164.732,901.127,32.076,864.047,-124.231C826.261,-283.513,615.365,-321.635,484.148,-419.516C384.336,-493.971,302.904,-590.078,185.171,-630.635C63.798,-672.446,-63.154,-652.726,-191.526,-652.277C-372.923,-651.642,-587.827,-747.16,-724.12,-627.454C-856.544,-511.146,-798.102,-291.608,-802.768,-115.421C-806.92,41.333,-798.292,193.301,-749.808,342.426C-696.236,507.202,-662.861,712.68,-508.163,790.716C-352.342,869.319,-170.749,756.762,0,720.659" fill="#28509f"></path><path d="M1920 1545.416C2045.138 1551.492 2158.286 1675.492 2277.037 1635.5610000000001 2395.752 1595.642 2487.444 1471.769 2506.947 1348.05 2525.947 1227.52 2404.011 1133.092 2374.928 1014.591 2349.95 912.817 2409.431 793.756 2349.767 707.605 2289.423 620.473 2169.638 605.8240000000001 2068.938 572.764 1964.968 538.631 1860.27 489.40700000000004 1753.142 511.73199999999997 1642.5439999999999 534.781 1552.56 612.153 1476.9859999999999 696.127 1400.363 781.267 1318.092 879.117 1319.429 993.651 1320.738 1105.741 1439.003 1176.449 1483.7939999999999 1279.209 1529.757 1384.656 1486.382 1542.016 1584.571 1601.938 1683.358 1662.225 1804.406 1539.8029999999999 1920 1545.416" fill="#6088d7"></path></g><defs><mask id="SvgjsMask1073"><rect width="1920" height="1080" fill="#ffffff"></rect></mask></defs></svg>